<?xml version="1.0" encoding="utf-8"?>
<!-- Generator: Adobe Illustrator 19.2.1, SVG Export Plug-In . SVG Version: 6.00 Build 0)  -->
<svg version="1.1" id="Layer_1" xmlns="http://www.w3.org/2000/svg" xmlns:xlink="http://www.w3.org/1999/xlink" x="0px" y="0px"
	 viewBox="0 0 46.3 46.3" style="enable-background:new 0 0 46.3 46.3;" xml:space="preserve">
<style type="text/css">
	.st0{fill:#FFFFFF;}
	.st1{fill:none;stroke:#FFFFFF;stroke-miterlimit:10;}
</style>
<g>
	<g>
		<g>
			<g>
				<path class="st0" d="M23.1,2.3C34.6,2.3,44,11.6,44,23.1C44,34.6,34.6,44,23.1,44C11.6,44,2.3,34.6,2.3,23.1
					C2.3,11.6,11.6,2.3,23.1,2.3 M23.1,0C10.4,0,0,10.4,0,23.1c0,12.8,10.4,23.1,23.1,23.1c12.8,0,23.1-10.4,23.1-23.1
					C46.3,10.4,35.9,0,23.1,0L23.1,0z"/>
			</g>
		</g>
	</g>
	<g>
		<path class="st1" d="M23.1,13.7h3.2c0-1.7-1.5-3.1-3.2-3.1c-1.7,0-3.1,1.4-3.2,3.1H23.1z"/>
		<path class="st1" d="M23.1,10.6c0.4,0,0.7,0.1,1.1,0.2c0.1-0.1,0.1-0.3,0.1-0.5c0-0.7-0.5-1.2-1.2-1.2c-0.7,0-1.2,0.5-1.2,1.2
			c0,0.2,0,0.3,0.1,0.5C22.4,10.7,22.8,10.6,23.1,10.6z"/>
		<g>
			<path class="st1" d="M20.1,17.9h6.1l1.9-2.7c0.2-0.3,0.2-0.6,0.1-0.9c-0.2-0.3-0.5-0.5-0.8-0.5h-4.3h-4.3c-0.3,0-0.7,0.2-0.8,0.5
				c-0.2,0.3-0.1,0.7,0.1,1L20.1,17.9z"/>
			<g>
				<polygon class="st1" points="29,30.5 25.8,19.7 20.6,19.7 17.4,30.5 				"/>
			</g>
		</g>
		<path class="st1" d="M23.1,32.6h7.5v-1.2c0-0.5-0.4-0.9-0.9-0.9H16.6c-0.5,0-0.9,0.4-0.9,0.9v1.2H23.1z"/>
		<path class="st1" d="M31.5,32.6h-8.3h-8.3c-0.5,0-0.9,0.4-0.9,0.9v2.7c0,0.5,0.4,0.9,0.9,0.9h8.3h8.3c0.5,0,0.9-0.4,0.9-0.9v-2.7
			C32.4,33.1,32,32.6,31.5,32.6z"/>
		<path class="st1" d="M26.3,19.7h-6.4c-0.5,0-0.9-0.4-0.9-0.9s0.4-0.9,0.9-0.9h6.4c0.5,0,0.9,0.4,0.9,0.9S26.9,19.7,26.3,19.7z"/>
	</g>
</g>
</svg>
