<?xml version="1.0" encoding="utf-8"?>
<!-- Generator: Adobe Illustrator 19.2.1, SVG Export Plug-In . SVG Version: 6.00 Build 0)  -->
<svg version="1.1" id="Layer_1" xmlns="http://www.w3.org/2000/svg" xmlns:xlink="http://www.w3.org/1999/xlink" x="0px" y="0px"
	 viewBox="0 0 46.3 46.3" style="enable-background:new 0 0 46.3 46.3;" xml:space="preserve">
<style type="text/css">
	.st0{fill:#FFFFFF;}
</style>
<g>
	<g>
		<path class="st0" d="M23.2,2.3C34.7,2.3,44,11.7,44,23.2S34.7,44,23.2,44S2.3,34.7,2.3,23.2S11.7,2.3,23.2,2.3 M23.2,0
			C10.4,0,0,10.4,0,23.2s10.4,23.2,23.2,23.2s23.2-10.4,23.2-23.2S35.9,0,23.2,0L23.2,0z"/>
	</g>
	<g>
		<g>
			<path class="st0" d="M25.7,25.2c-2.8,2.5-7.1,2.2-9.6-0.6s-2.2-7.1,0.6-9.6c2.8-2.5,7.1-2.2,9.6,0.6S28.5,22.7,25.7,25.2z
				 M17.3,15.8c-2.4,2.1-2.6,5.9-0.5,8.3s5.9,2.6,8.3,0.5s2.6-5.9,0.5-8.3S19.7,13.6,17.3,15.8z"/>
		</g>
		<g>
			<path class="st0" d="M33.7,34.5c-1.3,1.2-3.5,1.2-4.7-0.1l-4.6-5.2c-3.6,1.4-7.8,0.3-10.4-2.6c-3.5-3.9-3-9.9,0.9-13.4
				c3.9-3.5,10-3.2,13.4,0.7c2.7,3,3.1,7.5,1.2,10.8l4.6,5.2C35.3,31.1,35,33.3,33.7,34.5z M16,14.2c-3.3,2.9-3.6,7.9-0.7,11.2
				c2.3,2.6,6,3.4,9.1,2c0.3-0.1,0.6,0,0.8,0.2l5,5.6c0.6,0.6,1.8,0.6,2.4,0c0.7-0.6,0.8-1.8,0.3-2.4l-5-5.6
				c-0.2-0.3-0.3-0.6-0.1-0.9c1.9-3,1.6-6.9-0.7-9.5C24.2,11.6,19.2,11.3,16,14.2z"/>
		</g>
	</g>
</g>
</svg>
