<?xml version="1.0" encoding="utf-8"?>
<!-- Generator: Adobe Illustrator 19.2.1, SVG Export Plug-In . SVG Version: 6.00 Build 0)  -->
<svg version="1.1" id="Layer_1" xmlns="http://www.w3.org/2000/svg" xmlns:xlink="http://www.w3.org/1999/xlink" x="0px" y="0px"
	 viewBox="0 0 46.3 46.3" style="enable-background:new 0 0 46.3 46.3;" xml:space="preserve">
<style type="text/css">
	.st0{fill:#FFFFFF;}
	.st1{fill:#FFFFFF;stroke:#FFFFFF;stroke-width:1.6187;stroke-miterlimit:10;}
	.st2{clip-path:url(#SVGID_2_);}
	.st3{fill:none;stroke:#FFFFFF;stroke-width:1.3953;stroke-miterlimit:10;}
	.st4{fill:none;stroke:#FFFFFF;stroke-width:1.8604;stroke-miterlimit:10;}
</style>
<g>
	<g>
		<path class="st0" d="M23.2,2.3C34.7,2.3,44,11.7,44,23.2S34.7,44,23.2,44C11.7,44,2.3,34.7,2.3,23.2S11.7,2.3,23.2,2.3 M23.2,0
			C10.4,0,0,10.4,0,23.2s10.4,23.2,23.2,23.2s23.2-10.4,23.2-23.2S35.9,0,23.2,0L23.2,0z"/>
	</g>
	<g>
		<g>
			<g>
				<g>
					<path class="st0" d="M35.3,25.3c0.1-0.7,0.2-1.3,0.2-2c-0.4-0.4-1-0.8-1.7-1.2c0,0.4,0.1,0.8,0.1,1.2c0,0.8-0.1,1.5-0.2,2.2
						C34.2,25.5,34.8,25.4,35.3,25.3z"/>
					<path class="st0" d="M15.2,16.8c-0.7,0-1.3,0.1-1.9,0.1c-0.4,0.6-0.7,1.3-1,2c0.4,0.3,0.8,0.7,1.3,1c1.4-4.1,5.3-7,9.8-7
						c5.2,0,9.4,3.8,10.2,8.7l1.2-2c-1.5-4.8-6.1-8.4-11.4-8.4c-3.2,0-6.1,1.3-8.3,3.4L15.2,16.8z"/>
					<path class="st0" d="M32.5,29.1c-0.2,0-0.3,0-0.5,0c-1.9,2.7-5,4.5-8.5,4.5c-5.5,0-10-4.3-10.3-9.7c-0.5-0.3-0.9-0.5-1.4-0.8
						c-0.1-0.1-0.2-0.1-0.3-0.2c0,0.1,0,0.3,0,0.4c0,6.6,5.4,12,12,12c4.5,0,8.4-2.5,10.4-6.1C33.5,29.1,33,29.1,32.5,29.1z"/>
				</g>
				<g>
					<path class="st0" d="M17.4,24.7c0.3-0.4,0.7-0.9,0.9-1.2c0,0,0,0,0,0c-2-0.8-3.7-1.7-5.1-2.6c-2.5-1.6-3.2-2.9-3-3.6
						c0.2-0.7,1.6-1.5,4.9-1.5l0-1.6c-3.8,0-6,1-6.5,2.7c-0.5,1.6,0.8,3.5,3.7,5.4c1.4,0.9,3.2,1.8,5.2,2.6L17.4,24.7z"/>
					<path class="st0" d="M34.9,19.7L34.1,21c3,1.8,3.8,3.3,3.6,4c-0.3,1.1-3.1,1.8-7.6,1.4c0,0,0,0.1,0,0.1c0.2,0.5,0.1,1-0.2,1.5
						c0.9,0.1,1.8,0.1,2.6,0.1c3.5,0,6.1-0.8,6.7-2.7C39.7,23.7,38.2,21.7,34.9,19.7z"/>
				</g>
				<path class="st1" d="M24,17.3"/>
				<path class="st0" d="M14.5,18.1c1.8-3.1,5.1-5.2,8.9-5.2c5.6,0,10.1,4.4,10.3,9.9c0.6,0.1,1.1,0.3,1.6,0.4
					c0-6.6-5.4-11.9-12-11.9c-4.5,0-8.4,2.5-10.5,6.2L14.5,18.1z"/>
			</g>
		</g>
		<g>
			<defs>
				
					<ellipse id="SVGID_1_" transform="matrix(0.9981 -6.227747e-02 6.227747e-02 0.9981 -1.4031 1.507)" cx="23.5" cy="23.3" rx="11.2" ry="11.2"/>
			</defs>
			<clipPath id="SVGID_2_">
				<use xlink:href="#SVGID_1_"  style="overflow:visible;"/>
			</clipPath>
			<g class="st2">
				<path class="st3" d="M30.1,26.5c-0.1-0.2-0.2-0.4-0.3-0.5c0.3-0.5,0.4-1.1,0.2-1.6c-0.1-0.2-0.2-0.4-0.3-0.5
					c0.3-0.5,0.4-1.1,0.2-1.6c-0.1-0.2-0.2-0.4-0.3-0.5c0.3-0.5,0.4-1.1,0.2-1.6c-0.1-0.4-0.4-0.7-0.8-0.9c-0.3-0.1-0.7-0.2-1.3,0
					l-4.3,1.4c-0.1-1-0.4-2.3-0.4-2.4c0-0.1,0-0.1,0-0.1c-0.5-1.2-1.8-2.5-1.8-2.6c-0.1-0.1-0.3-0.2-0.4-0.2c-0.3,0-0.7,0-1,0.1
					c-0.6,0.2-0.9,0.6-1.1,0.9c-0.1,0.2-0.1,0.3,0,0.5c0,0,0.6,1.6,0.7,2.1c0,0.7-0.8,4-1.1,4.5c-0.2,0.3-0.6,0.8-0.9,1.2l2.1,6.7
					c0.1,0,0.2,0,0.2,0l0.9-0.3c0.1,0,0.2,0,0.3,0.1c0.3,0.1,0.8,0.2,1.3,0.1l6.3-2C29.9,28.7,30.4,27.4,30.1,26.5z"/>
				<path class="st4" d="M17.2,23.9l-4.8,1.6c-0.2,0.1-0.4,0.2-0.4,0.4c-0.1,0.2-0.1,0.4,0,0.6l2.8,6.9c0.1,0.3,0.5,0.5,0.9,0.4
					l4.3-1.4c0.4-0.1,0.6-0.5,0.5-0.9l-2.3-7.1C18,24,17.6,23.8,17.2,23.9L17.2,23.9z"/>
			</g>
		</g>
	</g>
</g>
</svg>
